# Blender v2.91.0 OBJ File: 'Sphere_Decal.blend'
# www.blender.org
mtllib Sphere_Decal.mtl
o Sphere
v 0.162212 0.555570 -0.815493
v 0.180240 0.382683 -0.906127
v 0.191342 0.195090 -0.961940
v 0.195090 0.000000 -0.980785
v 0.191342 -0.195090 -0.961940
v 0.180240 -0.382683 -0.906127
v 0.318190 0.555570 -0.768178
v 0.353553 0.382683 -0.853553
v 0.375330 0.195090 -0.906127
v 0.382684 0.000000 -0.923879
v 0.375330 -0.195090 -0.906127
v 0.353554 -0.382683 -0.853553
v 0.461940 0.555570 -0.691342
v 0.513280 0.382683 -0.768178
v 0.544895 0.195090 -0.815493
v 0.555570 0.000000 -0.831469
v 0.544895 -0.195090 -0.815493
v 0.513280 -0.382683 -0.768178
v 0.587938 0.555570 -0.587938
v 0.653282 0.382683 -0.653281
v 0.693520 0.195090 -0.693520
v 0.707107 0.000000 -0.707107
v 0.693520 -0.195090 -0.693520
v 0.653282 -0.382683 -0.653281
v 0.691342 0.555570 -0.461940
v 0.768178 0.382683 -0.513280
v 0.815493 0.195090 -0.544895
v 0.831470 0.000000 -0.555570
v 0.815493 -0.195090 -0.544895
v 0.768178 -0.382683 -0.513280
v 0.768178 0.555570 -0.318189
v 0.853554 0.382683 -0.353553
v 0.906128 0.195090 -0.375330
v 0.923880 0.000000 -0.382683
v 0.906128 -0.195090 -0.375330
v 0.853554 -0.382683 -0.353553
v 0.815493 0.555570 -0.162211
v 0.906128 0.382683 -0.180240
v 0.961940 0.195090 -0.191341
v 0.980785 0.000000 -0.195090
v 0.961940 -0.195090 -0.191341
v 0.906128 -0.382683 -0.180240
vt 0.244978 0.952603
vt 0.071371 0.956089
vt 0.073204 0.800056
vt 0.246682 0.813599
vt 0.415533 0.951527
vt 0.415946 0.824750
vt 0.581966 0.953153
vt 0.583054 0.829401
vt 0.743903 0.957735
vt 0.750165 0.828399
vt 0.919215 0.958425
vt 0.920069 0.823710
vt 0.583956 0.664682
vt 0.748331 0.664768
vt 0.918189 0.663559
vt 0.082899 0.649567
vt 0.255275 0.657231
vt 0.420802 0.662360
vt 0.086840 0.503174
vt 0.257646 0.503144
vt 0.421654 0.502754
vt 0.583658 0.502238
vt 0.747683 0.501984
vt 0.918483 0.502165
vt 0.581431 0.339499
vt 0.747090 0.338345
vt 0.919686 0.339389
vt 0.084181 0.357931
vt 0.253942 0.349825
vt 0.418256 0.343426
vt 0.087384 0.199222
vt 0.248112 0.194925
vt 0.418641 0.189295
vt 0.578285 0.190010
vt 0.750170 0.186085
vt 0.921940 0.175108
vt 0.750357 0.050186
vt 0.923153 0.046712
vt 0.085323 0.067063
vt 0.243691 0.060276
vt 0.412240 0.052768
vt 0.579515 0.046374
vn 0.2563 0.4696 -0.8448
vn 0.2779 0.2890 -0.9161
vn 0.2889 0.0975 -0.9524
vn 0.2889 -0.0975 -0.9524
vn 0.2779 -0.2890 -0.9161
vn 0.4691 -0.0975 -0.8777
vn 0.4513 -0.2890 -0.8443
vn 0.4162 0.4696 -0.7786
vn 0.4513 0.2890 -0.8443
vn 0.4691 0.0975 -0.8777
vn 0.5601 0.4696 -0.6825
vn 0.6073 0.2890 -0.7400
vn 0.6314 0.0976 -0.7693
vn 0.6314 -0.0976 -0.7693
vn 0.6073 -0.2890 -0.7400
vn 0.7693 -0.0975 -0.6314
vn 0.7400 -0.2890 -0.6073
vn 0.6825 0.4696 -0.5601
vn 0.7400 0.2890 -0.6073
vn 0.7693 0.0975 -0.6314
vn 0.7786 0.4696 -0.4162
vn 0.8443 0.2890 -0.4513
vn 0.8777 0.0976 -0.4691
vn 0.8777 -0.0976 -0.4691
vn 0.8443 -0.2890 -0.4513
vn 0.9161 -0.2890 -0.2779
vn 0.8448 0.4696 -0.2563
vn 0.9161 0.2890 -0.2779
vn 0.9524 0.0976 -0.2889
vn 0.9524 -0.0976 -0.2889
usemtl None
s off
f 2/1/1 1/2/1 7/3/1 8/4/1
f 3/5/2 2/1/2 8/4/2 9/6/2
f 4/7/3 3/5/3 9/6/3 10/8/3
f 5/9/4 4/7/4 10/8/4 11/10/4
f 6/11/5 5/9/5 11/10/5 12/12/5
f 11/10/6 10/8/6 16/13/6 17/14/6
f 12/12/7 11/10/7 17/14/7 18/15/7
f 8/4/8 7/3/8 13/16/8 14/17/8
f 9/6/9 8/4/9 14/17/9 15/18/9
f 10/8/10 9/6/10 15/18/10 16/13/10
f 14/17/11 13/16/11 19/19/11 20/20/11
f 15/18/12 14/17/12 20/20/12 21/21/12
f 16/13/13 15/18/13 21/21/13 22/22/13
f 17/14/14 16/13/14 22/22/14 23/23/14
f 18/15/15 17/14/15 23/23/15 24/24/15
f 23/23/16 22/22/16 28/25/16 29/26/16
f 24/24/17 23/23/17 29/26/17 30/27/17
f 20/20/18 19/19/18 25/28/18 26/29/18
f 21/21/19 20/20/19 26/29/19 27/30/19
f 22/22/20 21/21/20 27/30/20 28/25/20
f 26/29/21 25/28/21 31/31/21 32/32/21
f 27/30/22 26/29/22 32/32/22 33/33/22
f 28/25/23 27/30/23 33/33/23 34/34/23
f 29/26/24 28/25/24 34/34/24 35/35/24
f 30/27/25 29/26/25 35/35/25 36/36/25
f 36/36/26 35/35/26 41/37/26 42/38/26
f 32/32/27 31/31/27 37/39/27 38/40/27
f 33/33/28 32/32/28 38/40/28 39/41/28
f 34/34/29 33/33/29 39/41/29 40/42/29
f 35/35/30 34/34/30 40/42/30 41/37/30
